:FULLY-SPECIFIED
:FORCE-ALL-JOINTS-BE-3DOF
:DEGREES
2548
root 4.05349 13.7339 -23.8981 959.703 76.7454 -123.437
lfemur -38.586 12.7104 -12.8948
ltibia 89.2679 0 0
lfoot -28.2183 26.1532 0
ltoes -38.6348 0 0
rfemur -57.0567 -24.2106 10.828
rtibia 66.3513 0 0
rfoot 0.0742371 5.13058 0
rtoes 8.28321 0 0
lowerback 16.9163 -0.247033 -3.80191
upperback -1.05813 -0.753594 3.0264
thorax -10.6199 -0.0195719 5.68371
lowerneck 5.10462 -14.6253 -15.1809
upperneck 0.187458 -20.4991 15.1581
head 2.38031 -10.3982 6.2573
lclavicle -2.40675e-14 1.33041e-14 0
lhumerus -49.5973 -46.695 113.563
lradius 106.426 0 0
lwrist 80.9394 0 0
lhand 8.4328 400.739 0
lfingers 7.12502 0 0
lthumb 33.6358 -652.421 0
rclavicle -2.40675e-14 1.33041e-14 0
rhumerus 13.6486 -11.0823 -56.9968
rradius 77.8425 0 0
rwrist 26.757 0 0
rhand -36.858 -407.464 0
rfingers 7.12502 0 0
rthumb -9.93554 282.875 0
2549
root 4.01128 13.7477 -24.0363 963.173 74.8286 -120.179
lfemur -38.7781 12.857 -13.1835
ltibia 89.0988 0 0
lfoot -28.3036 26.289 0
ltoes -38.5014 0 0
rfemur -57.1188 -24.0123 11.1894
rtibia 67.2376 0 0
rfoot -0.26912 4.36062 0
rtoes 8.30795 0 0
lowerback 16.9812 -0.19622 -3.8788
upperback -1.04448 -0.709467 2.99796
thorax -10.6482 0.00506549 5.6857
lowerneck 5.09927 -14.6296 -15.1876
upperneck 0.189051 -20.5124 15.2754
head 2.39794 -10.4058 6.29012
lclavicle -2.32554e-14 1.30228e-14 0
lhumerus -48.6488 -47.1975 113.246
lradius 106.099 0 0
lwrist 80.6573 0 0
lhand 8.2666 400.883 0
lfingers 7.12502 0 0
lthumb 33.4775 -652.247 0
rclavicle -2.32554e-14 1.30228e-14 0
rhumerus 15.0258 -9.87769 -56.0952
rradius 78.2967 0 0
rwrist 26.302 0 0
rhand -36.4023 -407.093 0
rfingers 7.12502 0 0
rthumb -9.49562 283.24 0
2550
root 3.96908 13.7614 -24.1744 966.642 72.9118 -116.921
lfemur -38.9702 13.0037 -13.4722
ltibia 88.9298 0 0
lfoot -28.3889 26.4247 0
ltoes -38.3681 0 0
rfemur -57.1808 -23.814 11.5509
rtibia 68.1239 0 0
rfoot -0.612476 3.59066 0
rtoes 8.33268 0 0
lowerback 17.0461 -0.145408 -3.95569
upperback -1.03083 -0.665339 2.96951
thorax -10.6764 0.0297029 5.68769
lowerneck 5.09391 -14.634 -15.1943
upperneck 0.190643 -20.5257 15.3928
head 2.41556 -10.4135 6.32293
lclavicle -2.24432e-14 1.27416e-14 0
lhumerus -47.7002 -47.6999 112.929
lradius 105.773 0 0
lwrist 80.3752 0 0
lhand 8.1004 401.027 0
lfingers 7.12502 0 0
lthumb 33.3191 -652.072 0
rclavicle -2.24432e-14 1.27416e-14 0
rhumerus 16.403 -8.67308 -55.1936
rradius 78.7508 0 0
rwrist 25.8471 0 0
rhand -35.9467 -406.722 0
rfingers 7.12502 0 0
rthumb -9.05571 283.604 0
2551
root 3.92687 13.7752 -24.3126 970.112 70.9949 -113.663
lfemur -39.1623 13.1503 -13.7609
ltibia 88.7607 0 0
lfoot -28.4742 26.5605 0
ltoes -38.2348 0 0
rfemur -57.2429 -23.6158 11.9123
rtibia 69.0102 0 0
rfoot -0.955833 2.8207 0
rtoes 8.35741 0 0
lowerback 17.111 -0.0945953 -4.03258
upperback -1.01718 -0.621211 2.94107
thorax -10.7046 0.0543403 5.68968
lowerneck 5.08856 -14.6384 -15.2011
upperneck 0.192236 -20.539 15.5101
head 2.43318 -10.4212 6.35575
lclavicle -2.16311e-14 1.24604e-14 0
lhumerus -46.7517 -48.2024 112.613
lradius 105.447 0 0
lwrist 80.0931 0 0
lhand 7.9342 401.171 0
lfingers 7.12502 0 0
lthumb 33.1607 -651.898 0
rclavicle -2.16311e-14 1.24604e-14 0
rhumerus 17.7802 -7.46848 -54.292
rradius 79.205 0 0
rwrist 25.3922 0 0
rhand -35.491 -406.351 0
rfingers 7.12502 0 0
rthumb -8.6158 283.969 0
2552
root 3.88466 13.7889 -24.4508 973.582 69.0781 -110.406
lfemur -39.3543 13.297 -14.0496
ltibia 88.5916 0 0
lfoot -28.5595 26.6963 0
ltoes -38.1014 0 0
rfemur -57.305 -23.4175 12.2737
rtibia 69.8965 0 0
rfoot -1.29919 2.05074 0
rtoes 8.38214 0 0
lowerback 17.1759 -0.0437827 -4.10947
upperback -1.00353 -0.577084 2.91262
thorax -10.7329 0.0789777 5.69167
lowerneck 5.08321 -14.6428 -15.2078
upperneck 0.193828 -20.5523 15.6275
head 2.45081 -10.4289 6.38857
lclavicle -2.0819e-14 1.21792e-14 0
lhumerus -45.8031 -48.7048 112.296
lradius 105.12 0 0
lwrist 79.811 0 0
lhand 7.768 401.315 0
lfingers 7.12502 0 0
lthumb 33.0024 -651.723 0
rclavicle -2.0819e-14 1.21792e-14 0
rhumerus 19.1575 -6.26388 -53.3904
rradius 79.6591 0 0
rwrist 24.9373 0 0
rhand -35.0354 -405.979 0
rfingers 7.12502 0 0
rthumb -8.17588 284.333 0
2553
root 3.84246 13.8027 -24.589 977.051 67.1613 -107.148
lfemur -39.5464 13.4436 -14.3383
ltibia 88.4225 0 0
lfoot -28.6448 26.8321 0
ltoes -37.9681 0 0
rfemur -57.3671 -23.2192 12.6352
rtibia 70.7828 0 0
rfoot -1.64255 1.28078 0
rtoes 8.40687 0 0
lowerback 17.2408 0.00702985 -4.18636
upperback -0.989877 -0.532956 2.88418
thorax -10.7611 0.103615 5.69366
lowerneck 5.07785 -14.6471 -15.2145
upperneck 0.19542 -20.5656 15.7448
head 2.46843 -10.4366 6.42139
lclavicle -2.00069e-14 1.1898e-14 0
lhumerus -44.8546 -49.2073 111.979
lradius 104.794 0 0
lwrist 79.5289 0 0
lhand 7.6018 401.459 0
lfingers 7.12502 0 0
lthumb 32.844 -651.548 0
rclavicle -2.00069e-14 1.1898e-14 0
rhumerus 20.5347 -5.05928 -52.4888
rradius 80.1133 0 0
rwrist 24.4824 0 0
rhand -34.5797 -405.608 0
rfingers 7.12502 0 0
rthumb -7.73597 284.698 0
